/* XPM */
static char *image[] = {
"64 64 271 2",
"   c None",
"00 c #00005f",
"10 c #0000b0",
"20 c #0000dc",
"30 c #00006c",
"40 c #0006cf",
"50 c #0000c6",
"60 c #002acf",
"70 c #006380",
"80 c #000f80",
"90 c #00006d",
":0 c #000032",
";0 c #00000b",
"A0 c #000053",
"B0 c #00009c",
"C0 c #002ac5",
"D0 c #000689",
"E0 c #0006ef",
"F0 c #002a8f",
"G0 c #314e4e",
"H0 c #00002d",
"I0 c #0000b1",
"J0 c #00006e",
"K0 c #00004e",
"L0 c #50505f",
"M0 c #505659",
"N0 c #0000e3",
"O0 c #00009b",
"P0 c #507a35",
"Q0 c #000062",
"R0 c #0a10e5",
"S0 c #467049",
"T0 c #6e8012",
"U0 c #0000db",
"V0 c #0000bb",
"W0 c #1010df",
"X0 c #70701f",
"Y0 c #101ed1",
"Z0 c #70721d",
"a0 c #10727d",
"b0 c #707e11",
"c0 c #0000c3",
"d0 c #0000b3",
"e0 c #0000cb",
"f0 c #1e30b1",
"g0 c #56802a",
"h0 c #7a8006",
"i0 c #0000bd",
"j0 c #000092",
"k0 c #304e81",
"l0 c #000081",
"m0 c #0a50a5",
"n0 c #3a8046",
"o0 c #818103",
"p0 c #00008d",
"q0 c #465069",
"r0 c #76800a",
"s0 c #878715",
"t0 c #b1b193",
"u0 c #506e41",
"v0 c #8f8f2d",
"w0 c #000041",
"x0 c #0610e9",
"y0 c #2a7065",
"z0 c #718f4b",
"01 c #9e9e5a",
"11 c #89891b",
"21 c #000015",
"31 c #00001f",
"41 c #000073",
"51 c #0606f3",
"61 c #1f1fc6",
"71 c #969644",
"81 c #000099",
"91 c #0000df",
":1 c #0000eb",
";1 c #2a2aab",
"A1 c #797930",
"B1 c #afaf96",
"C1 c #b2b296",
"D1 c #8e8e2a",
"E1 c #3232cd",
"F1 c #71719a",
"G1 c #a6a672",
"H1 c #9a9a4e",
"I1 c #a2a266",
"J1 c #95953f",
"K1 c #838309",
"L1 c #505091",
"M1 c #8f8f5f",
"N1 c #aaaa4b",
"O1 c #99994b",
"P1 c #0202fb",
"Q1 c #aeae0f",
"R1 c #85850f",
"S1 c #0e0ee3",
"T1 c #62623b",
"U1 c #e3e300",
"V1 c #9b9b00",
"W1 c #a8a869",
"X1 c #a3a369",
"Y1 c #808000",
"Z1 c #1e1ec3",
"a1 c #5b5b62",
"b1 c #9d9d74",
"c1 c #cfcf5a",
"d1 c #acac2d",
"e1 c #71714b",
"f1 c #303050",
"g1 c #30309f",
"h1 c #8a8a0f",
"i1 c #cccc69",
"j1 c #7f7f1e",
"k1 c #32324e",
"l1 c #000075",
"m1 c #3f3f8b",
"n1 c #9c9c03",
"o1 c #d6d669",
"p1 c #dfdf02",
"q1 c #2a2a56",
"r1 c #000017",
"s1 c #9f9f13",
"t1 c #eaea15",
"u1 c #cccc93",
"v1 c #d0d00f",
"w1 c #7f7f0e",
"x1 c #1f1f62",
"y1 c #06067a",
"z1 c #0a0aeb",
"02 c #464673",
"12 c #9f9f23",
"22 c #b6b64b",
"32 c #707010",
"42 c #101070",
"52 c #3f3fb5",
"62 c #9f9f19",
"72 c #d2d22d",
"82 c #e1e15a",
"92 c #87875d",
":2 c #96967a",
";2 c #f0f02c",
"A2 c #dcdc74",
"B2 c #efef2a",
"C2 c #000030",
"D2 c #000000",
"E2 c #c0c0bc",
"F2 c #f6f6da",
"G2 c #fafa62",
"H2 c #bfbf96",
"I2 c #8f8f2a",
"J2 c #00007f",
"K2 c #000050",
"L2 c #000049",
"M2 c #00000e",
"N2 c #eaea4a",
"O2 c #fcfc5c",
"P2 c #e6e66e",
"Q2 c #bfbf66",
"R2 c #8b8b49",
"S2 c #3d3d4f",
"T2 c #12126e",
"U2 c #000086",
"V2 c #000076",
"W2 c #00003a",
"X2 c #00001d",
"Y2 c #69877b",
"Z2 c #46463a",
"a2 c #0a0a76",
"b2 c #00003f",
"c2 c #000010",
"d2 c #000011",
"e2 c #edef2c",
"f2 c #004689",
"g2 c #00009f",
"h2 c #000070",
"i2 c #000071",
"j2 c #00007d",
"k2 c #b1bfa4",
"l2 c #2d8f8c",
"m2 c #000ac5",
"n2 c #8787aa",
"o2 c #eaea3f",
"p2 c #fcfc09",
"q2 c #e6e64b",
"r2 c #a1bf84",
"s2 c #3f8b9e",
"t2 c #093dc8",
"u2 c #0012bb",
"v2 c #1212ed",
"w2 c #bfbf84",
"x2 c #dddd66",
"y2 c #dee445",
"z2 c #a8d233",
"03 c #869898",
"13 c #4b69c8",
"23 c #3d3dc8",
"33 c #8f8f8c",
"43 c #e5e54e",
"53 c #d9df54",
"63 c #93afb2",
"73 c #0000fd",
"83 c #0000a9",
"93 c #8b8b9e",
":3 c #bfbfa4",
";3 c #efef2c",
"A3 c #d9d972",
"B3 c #85af9c",
"C3 c #157994",
"D3 c #031fe2",
"E3 c #0000f1",
"F3 c #00009d",
"G3 c #000085",
"H3 c #0a0af5",
"I3 c #4646b9",
"J3 c #9f9f5f",
"K3 c #d8d839",
"L3 c #d6e049",
"M3 c #70b64f",
"N3 c #506eae",
"O3 c #0012ed",
"P3 c #153fbf",
"Q3 c #999f5f",
"R3 c #a5c33c",
"S3 c #9fbd41",
"T3 c #8b9569",
"U3 c #1359a5",
"V3 c #001ee1",
"W3 c #0002fd",
"X3 c #0f15f4",
"Y3 c #0f3fca",
"Z3 c #1b8b73",
"a3 c #c3d32b",
"b3 c #539965",
"c3 c #0046b9",
"d3 c #000ef1",
"e3 c #00629d",
"f3 c #6993b2",
"g3 c #6999ac",
"h3 c #03738b",
"i3 c #1b2bd3",
"j3 c #0b15e9",
"k3 c #000af5",
"l3 c #0000cd",
"m3 c #2d3fde",
"n3 c #002ad5",
"o3 c #0006f9",
"p3 c #0000f5",
"q3 c #000091",
"r3 c #0000a6",
"s3 c #0000ed",
"t3 c #0000c5",
"u3 c #000089",
"v3 c #0000b9",
"w3 c #0000d5",
"x3 c #0000e2",
"y3 c #00008f",
"z3 c #0000ad",
"04 c #0000ef",
"14 c #0000f9",
"24 c #0000d1",
"34 c #0000e7",
"44 c #000080",
"54 c #00008e",
"64 c #0000c8",
"74 c #0000cf",
"84 c #0000e1",
"94 c #0000d8",
":4 c #0000af",
";4 c #0000b6",
"A4 c #0000f0",
"B4 c #0000ff",
"                                                                                                B4B4B4B4B4B4B4B4B4              ",
"                                                                                        B4B4B4A4;4:4:4:4:4:4:4:4:494B4B4        ",
"                                                                                        B4847464544444444444444444743424        ",
"                                                                                  B4140404z34444                      y3x3      ",
"                                                                              B4B4B4w3y3y3                              y324B4  ",
"                                                      B4B4B4B4B4B4B4B4B4B4B4B4B4B4B47444                                4474B4  ",
"                                                    B4B4B4B4B4B4B4B4B4B4B4B4B4B4B4B47444                                44v394  ",
"                                              B4B4B4B4B4B4B4B4B4B4B4B4B4B4B4B4B4B4B4w3y3y3y354                            44:4B4",
"                                      444474B4B4B4B4B4B4B4B4B4B4B4B4B4B4B4B4B4B4B4B414040404644444                        44:4B4",
"                                444444u3t3s3B4B4B4B4B4B4B4B4B4B4B4B4B4B4B4B4B4B4B4B4B4B4B4B4s37474r3                      44:4B4",
"                                4444q3v3p3B4B4B4B4B4B4o3n3m3m3n3o3B4B4B4B4B4B4B4B4B4B4B4B4B4B4B4B4l3r3                    44:4B4",
"                              4444u3v3B4B4B4B4B4B4k3j3i3h3g3f3e3d3B4B4B4B4B4B4B4B4B4B4B4B4B4B4B4B4B4w3y3y3                44:4B4",
"                          44444444t3p3B4B4B4B4B4B4c3b3a3Z3Y3X3d3W3B4B4B4B4B4B4B4B4B4B4B4B4B4B4B4B4B4140404z344            44:4B4",
"                        444444u3t3s3B4B4B4B4V3U3T3S3R3Q3P3O3B4B4B4B4B4B4B4B4B4B4B4B4B4B4B4B4B4B4B4B4B4B4B484v344          44:4B4",
"                        444444y304B4B4o3n3m3N3M3L3K3J3I3H3B4B4B4B4B4B4B4B4B4B4B4B4B4B4B4B4B4B4B4B4B4B4B4B4B484z3          r3t3B4",
"                      444444G3F3E3B4o3D3C3B3A3;3:393I3B4B4B4B4B4B4B4B4B4B4B4B4B4B4B4B4B4B4B4B4B4B4B4B4B4B4B4B4E3F3      4474B4  ",
"                  444444444483E373B4n3C3635343:33323H3B4B4B4B4B4B4B4B4B4B4B4B4B4B4B4B4B4B4B4B4B4B4B4B4B4B4B4B473E3z344  4474B4  ",
"                444444444444:4k3c31303z2y2x2w29323v2B4B4B4B4B4B4B4B4B4B4B4B4B4B4B4B4B4B4B4B4B4B4B4B4B4B4B4B4B4B4B4:444  4474B4  ",
"                4444444444F3u2t2s2r2q2p2o2w2n2I3H3B4B4B4B4B4B414w3747474747484B4B4B4B4B4B4B4B4B4B4B4B4B4B4B4B4B4B4l3r3  z394    ",
"              444444444444m2t2l2k2o2p2;3:393I3B4B4B4B4B4B4p304x3y34444j2i2h2g2040414B4B4B4B4B4B4B4B4B4B4B4B4B4B4B4B474y304      ",
"              444444444444f2s2k2e2p2o2:33323H3B4B4B4B4B4B4v3y3y3        d2c2b2y3y3w3B4B4B4B4B4B4B4B4B4B4B4B4B4B4B4B474y304      ",
"            4444444444a2Z2Y2r2o2p2q2w29323v2B4B4B4B4B4p3v3F3                X2W2V2F3l3B4B4B4B4B4B4B4B4B4B4B4B4B4B4B474U2        ",
"          4444444444T2S2R2Q2P2O2N2w2n2I3H3B4B4B4B4B4s36454                    M2L2K2J2w314B4B4B4B4B4B4B4B4B4B4B4B4B484z3        ",
"          44444444a2S2I2H243G2F2E293I3B4B4B4B4B4B4p36444                        D2D2C2y304B4B4B4B4B4B4B4B4B4B4B4B4B4B404y3      ",
"          44444444Z2R2H2B2A3A2;2:223H3B4B4B4B4B4B4v354                            D2C2y304B4B4B4B4B4B4B4B4B4B4B4B4B4B404y3      ",
"        444444a2Z292Q243A382726252v2B4B4B4B4B4B4B4:444                            D2C2y304B4B4B4B4B4B4B4B4B4B4B4B4B4B404y3      ",
"        444444423222x243A3721202z1B4B4B4B4B4B4B4B4:444                            D2C2y304B4B4B4B4B4B4B4B4B4B4B4B4B4B404y3      ",
"        4444y1x1w1v143u1t1s102B4B4B4B4B4B4B4B4B4B4:444                            r1W2y304B4B4B4B4B4B4B4B4B4B4B4B4B4B4E3F3      ",
"        4444q1w1p1o1A3t1n1m1z1B4B4B4B4B4B4B4B4B4B4:4444444444444444444444444444444l1V2y304B4B4B4B4B4B4B4B4B4B4B4B4B4B473E3z344  ",
"        44k1j1v1o18282i1h1g1B4B4B4B4B4B4B4B4B4B4B4847474747474747474747474747474747474w314B4B4B4B4B4B4B4B4B4B4B4B4B4B4B4B4:444  ",
"        f1e1d1v1o182c1b1a1Z1B4B4B4B4B4B4B4B4B4B4B4B4B4B4B4B4B4B4B4B4B4B4B4B4B4B4B4B4B4B4B4B4B4B4B4B4B4B4B4B4B4B4B4B4B4B4B4:444  ",
"        Y1X1W1V1U1i1b1T1S1B4B4B4B4B4B4B4B4B4B4B4B4B4B4B4B4B4B4B4B4B4B4B4B4B4B4B4B4B4B4B4B4B4B4B4B4B4B4B4B4B4B4B4B4B4B4B4B4:444  ",
"        Y1R1Q1U1V1h1a1S1P1B4B4B4B4B4B4B4B4B4B4B4B4B4B4B4B4B4B4B4B4B4B4B4B4B4B4B4B4B4B4B4B4B4B4B4B4B4B4B4B4B4B4B4B4B4B4B4B4:444  ",
"      Y1Y1O1N1Q1W1M1L1B4B4B4B4B4B4B4B4B4B4B4B4B4B4B4B4B4B4B4B4B4B4B4B4B4B4B4B4B4B4B4B4B4B4B4B4B4B4B4B4B4B4B4B4B4B4B4B4B4B4:444  ",
"      K1J1I1I1H1G1F1E1B4B4B4B4B4B4B4B4B4B4B4B4B4B4B4B4B4B4B4B4B4B4B4B4B4B4B4B4B4B4B4B4B4B4B4B4B4B4B4B4B4B4B4B4B4B4B4B4B4B4:444  ",
"      D1C1H1H1B1A1;1B4B4B4B414E373B4B4B4B4B4B4B4B4:1919191919191919191919191919191919191919191919191919191919191919191919181h2  ",
"  Y171C1D1G1G1A16151B4B4B4B4w3F3E3B4B4B4B4B4B4B4B441313131313131313131313131313131313131313131313131313131313131313131313121c2  ",
"  Y111H1G101z0y0x0B4B4B4B4l3F3y304B4B4B4B4B4B4B4B4q3w0                                                                          ",
"  Y111H1G1v0u0c3k3B4B4B4B4:444y304B4B4B4B4B4B4B4B4:444                                                                          ",
"  Y1J1t0s0r0q0B4B4B4B473E38344p08414B4B4B4B4B4B4B4:444                                                                          ",
"Y1Y1K1s0o0n0m0B4B4B4B4E3F3G344l0p0w3B4B4B4B4B4B4B4:444                                  D2K2444444444444444444444444444444      ",
"Y1Y1Y1Y1Y1k0V3B4B4B4B404y344F3t3u374B4B4B4B4B4B4B484v344                              X2j0i074747474747474747474747474t3u3      ",
"Y1Y1Y1h0g0f0B4B4B4B4s3t3u344F3e0d0c084B4B4B4B4B4B4B47444                            W241:1B4B4B4B4B4B4B4B4B4B4B4B4B4B404y3      ",
"Y1Y1Y1b0a0n3B4B4B4B47444444444p084d0d0E373B4B4B4B4B4w3y3                          X241B4B4B4B4B4B4B4B4B4B4B4B4B4B4B414x3y3      ",
"Y1Y1Y1Z0Y0o3B4B4B4B47444444444l0p0e0e0F3E3B4B4B4B4B414x3y34444                D2D2j0:1B4B4B4B4B4B4B4B4B4B4B4B4B4B4B4w3y3        ",
"Y1Y1Y1X0W0B4B4B4B4l3F344444444u3t3V0V0w314B4B4B4B4B4B414w374v344444444444444y3g2g2U0B4B4B4B4B4B4B4B4B4B4B4B4B4B4B4B47444        ",
"Y1Y1T0S0R0B4B414w3J2Q044444444u3t3V0V0w314B4B4B4B4B4B4B4B4B484:4:4:4:4:4:4:4l3B4B4B4B4B4B4B4B4B4B4B4B4B4B4B4B4B4B484v344        ",
"Y1Y1P0e3d3B4B404y3C2C2444444444444t3e0O0N014B4B4B4B4B4B4B4B4B4B4B4B4B4B4B4B4B4B4B4B4B4B4B4B4B4B4B4B4B4B4B4B4B4B4B4:444          ",
"Y1Y1M0d3W3B4B404y3C2C2444444444444u3d0N0O0w3B4B4B4B4B4B4B4B4B4B4B4B4B4B4B4B4B4B4B4B4B4B4B4B4B4B4B4B4B4B4B4B4B4B4B4:444          ",
"Y1Y1L0B4B4B4B404y3K0X2W2V24444444444q3d0e0V0l3B4B4B4B4B4B4B4B4B4B4B4B4B4B4B4B4B4B4B4B4B4B4B4B4B4B4B4B4B4B4B4B4p3v3F3            ",
"Y1Y1L0B4B4B4B404y3    M2L2J04444444444u3t3V0l314w3s3B4B4B4B4B4B4B4B4B4B4B4B4B4B4B4B4B4B4B4B4B4B4B4B4B4B4B4B4s36454              ",
"Y1Y1L0B4B4B414x3y3      D2L2V2444444444444t304N0O0e0p3B4B4B4B4B4B4B4B4B4B4B4B4B4B4B4B4B4B4B4B4B4B4B4B4B4B4p36444                ",
"Y1Y1L0B4B4B4w3y3          M2W2444444444444u3y3O0N0d0v3B4B4B4B4B4B4B4B4B4B4B4B4B4B4B4B4B4B4B4B4B4B4B4B4B4B4v354                  ",
"  Y1L0B4B4B47444            X2C2C2Q04444444444G383c0c0v3p3B4B4B4B4B4B4B4B4B4B4B4B4B4B4B4B4B4B4B4B4B484:4:4F3                    ",
"  Y1L0B4B4B47444              D2D2W2Q0444444444444I0I0u3t3s3s3w314B4B4B4B4B4B4B4B4B4B4B4B4B4B4B4B484v34444                      ",
"  Y1M0d3W3B47444                  D2H0h2h2h2V2444444444444t3e0O0N01414E373B4B4B4B4B4B4B4B4p3040404z344                          ",
"  Y1P0e3d3B47444                      c2c2c2W2444444444444u3d0N0O0w3w3F3E3B4B4B4B4B4B4B4B4v3y3y3y3                              ",
"    G0F0E0B47444                            X2C2C2Q044444444q383G3F3F3G383:4l3p3v3:4:4:4:4F3                                    ",
"      D0C0O384z3                            B0A0;0:0K2K2K2K2K2K2K2K2K2K2K2K290B0G344444444                                      ",
"      807060B4E3F3                        84915031D2D2D2D2D2D2D2D2D2D2D2D2D2D2D2                                                ",
"        8040B473E3z344                B4B4303131                                                                                ",
"          r3:4v3p38420B4B4B4B4B4B4B4100000W2                                                                                    ",
"            44G3B0g2g2g2g2g2g2g2g2g241D2D2                                                                                      ",
"                D2D2D2D2D2D2D2D2D2D2D2                                                                                          "};
