/* XPM */
static char *image[] = {
"48 48 6 1",
"  c None",
"0 c #00ff00",
"1 c #000000",
"2 c #ffffff",
"3 c #c0c0c0",
"4 c #808080",
"            444444                              ",
"          4433333344                            ",
"        44333333333344                          ",
"      443333333333333344                        ",
"    4433333333333333333344444444444             ",
"  44223333333333333333333344333333344           ",
"444333223333333333333333333343333333344         ",
"43343333223333333333333333333443333333344       ",
"4333443333223333333333333333333443333333344     ",
"433333433333223333333333333333333443333333344   ",
"43333334433333223333333333333333333443333333344 ",
"433333311443333322333333333333333333344333333331",
"433333311114433333223333333333333333333133333441",
"433333311111144333332233333333333333344133344441",
"433333310111111443333322333333333334444134444441",
"433333311001111114433333223333333444444144444441",
"433333311110011111144333332233344444444144444441",
"433333310111100111111443333322444444444144444441",
"433333311001111001111114433344444444444144444441",
"433333311110011110011111144433444444444144444441",
"433333310111100111100111113333444444444144444441",
"433333311001111001111001113333444444444144444441",
"433333311110111110111110013333444444444144444441",
"433333311111101111111111113333444444444144444441",
"433333311111111111111111113333444444444144444441",
"433333311111111111111111113333444444444144444441",
"433333311111111111111111113333444444444144444441",
"433333311111111111111111113333444444444144444441",
"433333311111111111111111113333444444444144444441",
"433333344111111111111111113333444444444144444441",
"433334433441111111111111113333444444444144444441",
"43344333333441111111111111333344444444414444441 ",
"4443333333333441111111111133334444444441444441  ",
"413333333333333441111111113333444444444144441   ",
"  113333333333333441111111333344444444414441    ",
"    113333333333333441111133334444444441441     ",
"      113333333333333441113333444444444141      ",
"        113333333333333444333344444444411       ",
"          113333333333333433334444444441        ",
"            1133333333333343334444444441        ",
"              11333333333343334444444441        ",
"                113333333334334444444441        ",
"                  1133333334334444444441        ",
"                    1133333343444444411         ",
"                      113333434444411           ",
"                        11333444411             ",
"                          1134411               ",
"                            111                 "};
